<svg width="20" height="20" viewBox="0 0 20 20" fill="none" xmlns="http://www.w3.org/2000/svg">
<path d="M6.5 6C6.89782 6 7.27936 5.84196 7.56066 5.56066C7.84196 5.27936 8 4.89782 8 4.5C8 4.10218 7.84196 3.72064 7.56066 3.43934C7.27936 3.15804 6.89782 3 6.5 3C6.10218 3 5.72064 3.15804 5.43934 3.43934C5.15804 3.72064 5 4.10218 5 4.5C5 4.89782 5.15804 5.27936 5.43934 5.56066C5.72064 5.84196 6.10218 6 6.5 6ZM6.5 11C6.89782 11 7.27936 10.842 7.56066 10.5607C7.84196 10.2794 8 9.89782 8 9.5C8 9.10218 7.84196 8.72064 7.56066 8.43934C7.27936 8.15804 6.89782 8 6.5 8C6.10218 8 5.72064 8.15804 5.43934 8.43934C5.15804 8.72064 5 9.10218 5 9.5C5 9.89782 5.15804 10.2794 5.43934 10.5607C5.72064 10.842 6.10218 11 6.5 11ZM8 14.5C8 14.8978 7.84196 15.2794 7.56066 15.5607C7.27936 15.842 6.89782 16 6.5 16C6.10218 16 5.72064 15.842 5.43934 15.5607C5.15804 15.2794 5 14.8978 5 14.5C5 14.1022 5.15804 13.7206 5.43934 13.4393C5.72064 13.158 6.10218 13 6.5 13C6.89782 13 7.27936 13.158 7.56066 13.4393C7.84196 13.7206 8 14.1022 8 14.5ZM13.5 6C13.8978 6 14.2794 5.84196 14.5607 5.56066C14.842 5.27936 15 4.89782 15 4.5C15 4.10218 14.842 3.72064 14.5607 3.43934C14.2794 3.15804 13.8978 3 13.5 3C13.1022 3 12.7206 3.15804 12.4393 3.43934C12.158 3.72064 12 4.10218 12 4.5C12 4.89782 12.158 5.27936 12.4393 5.56066C12.7206 5.84196 13.1022 6 13.5 6ZM15 9.5C15 9.89782 14.842 10.2794 14.5607 10.5607C14.2794 10.842 13.8978 11 13.5 11C13.1022 11 12.7206 10.842 12.4393 10.5607C12.158 10.2794 12 9.89782 12 9.5C12 9.10218 12.158 8.72064 12.4393 8.43934C12.7206 8.15804 13.1022 8 13.5 8C13.8978 8 14.2794 8.15804 14.5607 8.43934C14.842 8.72064 15 9.10218 15 9.5ZM13.5 16C13.8978 16 14.2794 15.842 14.5607 15.5607C14.842 15.2794 15 14.8978 15 14.5C15 14.1022 14.842 13.7206 14.5607 13.4393C14.2794 13.158 13.8978 13 13.5 13C13.1022 13 12.7206 13.158 12.4393 13.4393C12.158 13.7206 12 14.1022 12 14.5C12 14.8978 12.158 15.2794 12.4393 15.5607C12.7206 15.842 13.1022 16 13.5 16Z" fill="#B6B6B6"/>
</svg>
